<svg xmlns="http://www.w3.org/2000/svg" width="960" height="440" viewBox="0 0 960 440">
<defs>
 <linearGradient id="g" x1="0" y1="0" x2="1" y2="1"><stop stop-color="#f8d991"/><stop offset=".35" stop-color="#c49342"/><stop offset=".72" stop-color="#76501f"/><stop offset="1" stop-color="#f3ce7c"/></linearGradient>
 <radialGradient id="bg"><stop stop-color="#2d241a"/><stop offset="1" stop-color="#0b0a09"/></radialGradient>
 <filter id="glow"><feGaussianBlur stdDeviation="5" result="b"/><feMerge><feMergeNode in="b"/><feMergeNode in="SourceGraphic"/></feMerge></filter>
 <style>.c{fill:url(#bg);stroke:#b78945;stroke-width:2}.gold{fill:url(#g);stroke:#f7dc9b;stroke-width:1.2}.line{fill:none;stroke:url(#g);stroke-width:8;stroke-linecap:round;stroke-linejoin:round}.t{fill:#d7b97d;font:700 15px Georgia,serif;letter-spacing:2px;text-anchor:middle}.s{fill:#8e7857;font:10px Arial,sans-serif;letter-spacing:1.2px;text-anchor:middle}</style>
</defs>
<rect width="960" height="440" fill="#050505"/>
<g id="auction-hammer"><rect class="c" x="6" y="6" width="308" height="208" rx="13"/><g transform="rotate(-22 160 106)"><rect class="gold" x="104" y="62" width="92" height="46" rx="7"/><rect class="gold" x="145" y="95" width="17" height="83" rx="8"/></g><ellipse cx="160" cy="173" rx="72" ry="14" fill="#17120e" stroke="#c69748" stroke-width="5"/><text class="t" x="160" y="197">AUCTION HAMMER</text></g>
<g id="vault-door" transform="translate(320 0)"><rect class="c" x="6" y="6" width="308" height="208" rx="13"/><circle cx="160" cy="103" r="72" fill="#17130e" stroke="url(#g)" stroke-width="11"/><circle cx="160" cy="103" r="42" fill="#0d0c0b" stroke="#d3a755" stroke-width="6"/><path class="line" d="M160 61v84M118 103h84M130 73l60 60M190 73l-60 60"/><circle class="gold" cx="160" cy="103" r="10"/><path d="M228 44l35-20-13 38" fill="#f1ca72" opacity=".9" filter="url(#glow)"/><text class="t" x="160" y="197">VAULT DOOR OPEN</text></g>
<g id="wild-transformation" transform="translate(640 0)"><rect class="c" x="6" y="6" width="308" height="208" rx="13"/><rect x="90" y="46" width="140" height="118" rx="12" fill="#111" stroke="url(#g)" stroke-width="6"/><path class="gold" filter="url(#glow)" d="M160 67l13 24 28 4-20 20 5 28-26-13-26 13 5-28-20-20 28-4z"/><path d="M65 71l26 18M69 128l27-13M255 71l-26 18M251 128l-27-13" stroke="#e6b95f" stroke-width="5"/><text x="160" y="155" text-anchor="middle" fill="#deb66e" font-family="Georgia,serif" font-size="18" letter-spacing="4">WILD</text><text class="t" x="160" y="197">WILD TRANSFORM</text></g>
<g id="multiplier-increase" transform="translate(0 220)"><rect class="c" x="6" y="6" width="308" height="208" rx="13"/><g fill="#e9c576" font-family="Georgia,serif" font-weight="700" text-anchor="middle" filter="url(#glow)"><text x="88" y="105" font-size="44">×2</text><text x="160" y="92" font-size="56">×3</text><text x="236" y="105" font-size="44">×5</text></g><path d="M55 129h210" stroke="url(#g)" stroke-width="5"/><path class="gold" d="M160 122l15 21h-30z"/><text class="t" x="160" y="197">MULTIPLIER INCREASE</text></g>
<g id="cascade-win" transform="translate(320 220)"><rect class="c" x="6" y="6" width="308" height="208" rx="13"/><g fill="url(#g)" filter="url(#glow)"><path d="M73 72l26-13 21 19-12 29-31-2z"/><path d="M125 113l28-18 26 16-5 33-34 8z"/><path d="M190 65l31-9 21 25-15 31-35-4z"/><path d="M224 127l27-12 21 20-9 30-32 2z"/></g><path d="M56 161c55-22 117-22 208 0" stroke="#d5a956" stroke-width="5" fill="none"/><text class="t" x="160" y="197">CASCADE WIN</text></g>
<g id="big-win" transform="translate(640 220)"><rect class="c" x="6" y="6" width="308" height="208" rx="13"/><text x="160" y="111" text-anchor="middle" fill="url(#g)" stroke="#f5d68d" stroke-width="1" font-family="Georgia,serif" font-size="62" font-weight="700" filter="url(#glow)">BIG</text><text x="160" y="159" text-anchor="middle" fill="url(#g)" stroke="#f5d68d" stroke-width="1" font-family="Georgia,serif" font-size="52" font-weight="700" filter="url(#glow)">WIN</text><path d="M60 61l15 5M246 63l15-6M79 143l-18 10M242 143l19 10" stroke="#f0c878" stroke-width="4"/><text class="t" x="160" y="197">PREMIUM WIN STATE</text></g>
</svg>